<svg width="58" height="58" viewBox="0 0 58 58" fill="none" xmlns="http://www.w3.org/2000/svg">
<g filter="url(#filter0_d_750_2933)">
<rect x="2" y="2" width="50" height="50" rx="10" fill="url(#paint0_linear_750_2933)"/>
</g>
<path d="M31.0892 18.2946C31.0596 18.252 31.02 18.2174 30.9739 18.1937L30.837 18.1288L30.6713 18.0928H30.4911H29.8569V19.2242H30.3181C30.4213 19.2326 30.5249 19.2326 30.628 19.2242C30.7219 19.2078 30.8137 19.1812 30.9019 19.1449C30.9878 19.1103 31.0608 19.0499 31.1109 18.972C31.1633 18.8853 31.1884 18.7848 31.1829 18.6837C31.1949 18.617 31.1949 18.5486 31.1829 18.4819C31.1705 18.4117 31.138 18.3466 31.0892 18.2946Z" fill="white"/>
<path d="M34.9232 19.5196C34.8752 19.4355 34.8055 19.3658 34.7214 19.3178C34.6317 19.2656 34.5297 19.2382 34.4259 19.2385C33.9791 19.2385 33.7557 19.534 33.7557 20.1249C33.7408 20.3578 33.7987 20.5895 33.9215 20.7879C33.98 20.8609 34.0548 20.9191 34.1399 20.9579C34.225 20.9967 34.318 21.015 34.4115 21.0113C34.5064 21.0166 34.601 20.9967 34.6858 20.9536C34.7706 20.9106 34.8425 20.846 34.8943 20.7663C35.0143 20.5694 35.0721 20.3408 35.0601 20.1105C35.0712 20.0075 35.0712 19.9036 35.0601 19.8006C35.0271 19.7013 34.981 19.6068 34.9232 19.5196Z" fill="white"/>
<path d="M32.0981 13.25C30.8154 13.25 29.5614 13.6304 28.4948 14.3431C27.4282 15.0557 26.5969 16.0687 26.106 17.2538C25.6151 18.4389 25.4867 19.743 25.7369 21.0012C25.9872 22.2593 26.6049 23.4149 27.512 24.322C28.419 25.2291 29.5747 25.8468 30.8328 26.097C32.0909 26.3473 33.395 26.2189 34.5802 25.728C35.7653 25.2371 36.7782 24.4058 37.4909 23.3392C38.2036 22.2726 38.584 21.0186 38.584 19.7358C38.584 18.0157 37.9006 16.366 36.6843 15.1497C35.468 13.9333 33.8183 13.25 32.0981 13.25ZM31.673 19.534C31.7665 19.5652 31.8491 19.6228 31.9108 19.6998C31.978 19.7741 32.0273 19.8629 32.0549 19.9592C32.0904 20.089 32.1145 20.2216 32.127 20.3556L32.1846 20.7375C32.223 20.9508 32.2005 21.1706 32.1198 21.3717C32.0767 21.4397 32.0153 21.494 31.9426 21.5285C31.8698 21.5629 31.7888 21.576 31.709 21.5663C31.6357 21.5711 31.5622 21.5586 31.4946 21.5298C31.427 21.501 31.3672 21.4567 31.3198 21.4005C31.2184 21.241 31.1635 21.0563 31.1613 20.8672L31.1181 20.4997C31.1161 20.327 31.0521 20.1608 30.9379 20.0313C30.8726 19.9761 30.7968 19.9349 30.715 19.9101C30.6332 19.8853 30.5472 19.8775 30.4623 19.8872H29.8785V20.9753C29.8843 21.055 29.8739 21.1351 29.8479 21.2106C29.8219 21.2862 29.7808 21.3557 29.7272 21.4149C29.6788 21.465 29.6205 21.5043 29.5559 21.5304C29.4914 21.5565 29.422 21.5687 29.3525 21.5663C29.2822 21.5692 29.2121 21.5565 29.1473 21.5291C29.0825 21.5017 29.0246 21.4602 28.9777 21.4077C28.9247 21.3496 28.8839 21.2813 28.8579 21.207C28.8319 21.1327 28.8212 21.0539 28.8264 20.9753V17.9847C28.8224 17.9051 28.8373 17.8258 28.8699 17.7532C28.9025 17.6805 28.9518 17.6166 29.0138 17.5667C29.1394 17.4757 29.291 17.4277 29.4462 17.4298H30.5848C30.748 17.4216 30.9116 17.4216 31.0748 17.4298C31.221 17.4506 31.3655 17.4819 31.5072 17.5234C31.6372 17.5613 31.7592 17.6223 31.8675 17.7036C31.9649 17.7871 32.0435 17.8902 32.0981 18.0063C32.1593 18.1445 32.1889 18.2947 32.1846 18.4459C32.1846 18.9864 31.8819 19.3106 31.2694 19.4187C31.4088 19.4373 31.5448 19.4761 31.673 19.534ZM35.8239 20.788C35.7658 20.9587 35.6697 21.1139 35.5428 21.242C35.4305 21.3606 35.2924 21.4518 35.1393 21.5086C34.9865 21.5728 34.8221 21.6046 34.6564 21.6023C34.4611 21.6071 34.2678 21.5625 34.0943 21.4726C33.9501 21.3874 33.8366 21.2588 33.77 21.1051V21.9987C33.77 22.4022 33.6115 22.6112 33.3016 22.6112C33.2374 22.6155 33.1732 22.6031 33.1151 22.5754C33.057 22.5476 33.0071 22.5053 32.9701 22.4527C32.895 22.3137 32.86 22.1564 32.8692 21.9987V19.3467C32.8581 19.1824 32.8984 19.0186 32.9845 18.8783C33.021 18.8207 33.0725 18.7742 33.1335 18.7437C33.1944 18.7132 33.2625 18.7 33.3304 18.7053C33.39 18.7027 33.4494 18.7122 33.5052 18.7332C33.5609 18.7543 33.6118 18.7865 33.6547 18.8278C33.7305 18.9187 33.7714 19.0337 33.77 19.1521V19.1881C33.8468 19.014 33.9784 18.8697 34.1448 18.7774C34.3208 18.6875 34.5165 18.6429 34.7141 18.6477C34.8814 18.6429 35.0477 18.6753 35.201 18.7426C35.3543 18.8099 35.4907 18.9104 35.6005 19.0368C35.8446 19.3501 35.9628 19.7434 35.932 20.1394C35.9325 20.3601 35.8959 20.5793 35.8239 20.788Z" fill="white"/>
<path d="M31.4713 28.5206C31.1914 28.4887 30.9079 28.5151 30.6388 28.5982C30.3696 28.6813 30.1206 28.8193 29.9074 29.0034C29.8223 28.6995 29.6535 28.4256 29.4204 28.2128C29.1873 28.0001 28.8991 27.857 28.5887 27.7999C28.3237 27.7682 28.0551 27.7902 27.7988 27.8645C27.5426 27.9388 27.3039 28.0639 27.0969 28.2323C26.9834 27.937 26.7959 27.6758 26.5523 27.4739C26.3087 27.272 26.0173 27.1361 25.7061 27.0793C25.3952 27.0488 25.0815 27.0901 24.7891 27.2001C24.4967 27.31 24.2335 27.4857 24.0198 27.7134V23.1589C24.0371 22.8464 23.9523 22.5368 23.7781 22.2767C23.6038 22.0167 23.3497 21.8205 23.0541 21.7177C22.8367 21.6417 22.6043 21.6189 22.3763 21.6512C22.1483 21.6835 21.9314 21.7699 21.7437 21.9033C21.5559 22.0367 21.4029 22.2131 21.2974 22.4178C21.1919 22.6224 21.1369 22.8494 21.1372 23.0797V34.61C20.7549 34.61 20.3883 34.4582 20.118 34.1879C19.8477 33.9176 19.6959 33.551 19.6959 33.1687V31.9148C19.6968 31.8489 19.6847 31.7835 19.6601 31.7223C19.6355 31.6612 19.5991 31.6055 19.5528 31.5585C19.5065 31.5116 19.4514 31.4743 19.3906 31.4489C19.3298 31.4235 19.2645 31.4104 19.1986 31.4104H18.7662C18.2495 31.4104 17.7539 31.6151 17.3878 31.9798C17.0218 32.3445 16.8152 32.8394 16.8133 33.3561V36.8873C16.8108 37.1944 16.8738 37.4984 16.9981 37.7793C17.1224 38.0601 17.305 38.3112 17.5339 38.516L19.4725 40.2167C19.8714 40.565 20.3842 40.7547 20.9138 40.75H28.8913C29.4635 40.7514 30.0129 40.5259 30.4191 40.123L32.0406 38.5015C32.2418 38.2987 32.4008 38.0579 32.5084 37.7932C32.6161 37.5285 32.6701 37.2451 32.6675 36.9594V30.0195C32.6762 29.6689 32.561 29.3265 32.3422 29.0523C32.1234 28.7782 31.8151 28.5899 31.4713 28.5206ZM19.3572 27.0576H17.5555C17.3644 27.0576 17.1811 26.9817 17.046 26.8466C16.9108 26.7114 16.8349 26.5281 16.8349 26.337V17.6892C16.8349 17.4981 16.9108 17.3148 17.046 17.1797C17.1811 17.0445 17.3644 16.9686 17.5555 16.9686H24.3296C24.6051 16.195 24.9937 15.4664 25.4827 14.8066H17.3826C16.6181 14.8066 15.8849 15.1103 15.3443 15.6509C14.8037 16.1915 14.5 16.9247 14.5 17.6892V26.337C14.5 27.1015 14.8037 27.8347 15.3443 28.3753C15.8849 28.9159 16.6181 29.2196 17.3826 29.2196H19.3572V27.0576Z" fill="#F6F6F6"/>
<defs>
<filter id="filter0_d_750_2933" x="0" y="0" width="58" height="58" filterUnits="userSpaceOnUse" color-interpolation-filters="sRGB">
<feFlood flood-opacity="0" result="BackgroundImageFix"/>
<feColorMatrix in="SourceAlpha" type="matrix" values="0 0 0 0 0 0 0 0 0 0 0 0 0 0 0 0 0 0 127 0" result="hardAlpha"/>
<feOffset dx="2" dy="2"/>
<feGaussianBlur stdDeviation="2"/>
<feComposite in2="hardAlpha" operator="out"/>
<feColorMatrix type="matrix" values="0 0 0 0 0 0 0 0 0 0 0 0 0 0 0 0 0 0 0.1 0"/>
<feBlend mode="normal" in2="BackgroundImageFix" result="effect1_dropShadow_750_2933"/>
<feBlend mode="normal" in="SourceGraphic" in2="effect1_dropShadow_750_2933" result="shape"/>
</filter>
<linearGradient id="paint0_linear_750_2933" x1="20.75" y1="20.75" x2="63.25" y2="79.5" gradientUnits="userSpaceOnUse">
<stop stop-color="#F49900"/>
<stop offset="1" stop-color="#FFD600"/>
</linearGradient>
</defs>
</svg>
